HIERARCHY
ROOT Hips
{
  OFFSET 0 0 0
  CHANNELS 6 Xposition Yposition Zposition Zrotation Yrotation Xrotation
  JOINT LeftThigh
  {
    OFFSET 8.409438 0 -5.917753
    CHANNELS 3 Zrotation Yrotation Xrotation
    JOINT LeftLeg
    {
      OFFSET 0 0 -42.358652
      CHANNELS 3 Zrotation Yrotation Xrotation
      JOINT LeftFoot
      {
        OFFSET 0 0 -39.357303
        CHANNELS 3 Zrotation Yrotation Xrotation
      }
    }
  }
  JOINT RightThigh
  {
    OFFSET -8.409438 0 -5.917753
    CHANNELS 3 Zrotation Yrotation Xrotation
    JOINT RightLeg
    {
      OFFSET 0 0 -42.358652
      CHANNELS 3 Zrotation Yrotation Xrotation
      JOINT RightFoot
      {
        OFFSET 0 0 -39.357303
        CHANNELS 3 Zrotation Yrotation Xrotation
      }
    }
  }
  JOINT SpineLow
  {
    OFFSET 0 0 4.719101
    CHANNELS 3 Zrotation Yrotation Xrotation
    JOINT SpineMid
    {
      OFFSET 0 0 12.899191
      CHANNELS 3 Zrotation Yrotation Xrotation
      JOINT Chest
      {
        OFFSET 0 0 12.899191
        CHANNELS 3 Zrotation Yrotation Xrotation
        JOINT LeftShoulder
        {
          OFFSET 7.550562 1.41573 9.438202
          CHANNELS 3 Zrotation Yrotation Xrotation
          JOINT LeftArm
          {
            OFFSET 9.155056 0 4.247191
            CHANNELS 3 Zrotation Yrotation Xrotation
            JOINT LeftForearm
            {
              OFFSET 0 0 25.771955
              CHANNELS 3 Zrotation Yrotation Xrotation
              JOINT LeftHand
              {
                OFFSET 0 0 25.197169
                CHANNELS 3 Zrotation Yrotation Xrotation
              }
            }
          }
        }
        JOINT RightShoulder
        {
          OFFSET -7.550562 1.41573 9.438202
          CHANNELS 3 Zrotation Yrotation Xrotation
          JOINT RightArm
          {
            OFFSET -9.155056 0 4.247191
            CHANNELS 3 Zrotation Yrotation Xrotation
            JOINT RightForearm
            {
              OFFSET 0 0 -25.771955
              CHANNELS 3 Zrotation Yrotation Xrotation
              JOINT RightHand
              {
                OFFSET 0 0 -25.197169
                CHANNELS 3 Zrotation Yrotation Xrotation
              }
            }
          }
        }
        JOINT Neck
        {
          OFFSET 0 0 15.101124
          CHANNELS 3 Zrotation Yrotation Xrotation
          JOINT Head
          {
            OFFSET 0 0 11.325843
            CHANNELS 3 Zrotation Yrotation Xrotation
            End Site
            {
              OFFSET 0 0 14.157303
            }
          }
        }
      }
    }
  }
}
MOTION
Frames: 11
Frame Time: 0.0
0.0  93.25843  0.0  -4.458781  -21.808215  -88.165715  26.258625  -23.331283  -37.301329  1.428563  6.542189  34.232485  -0.114817  0.769875  2.682447  -9.890038  16.558206  7.865723  -3.199283  7.120618  11.989238  0.79745  -0.172417  -1.503473  1.403828  0.037585  -0.227086  3.836834  0.115872  -0.618297  3.836835  0.115872  -0.618297  -15.667243  13.0109  0.780029  -157.491333  72.474615  -95.176191  -30.070099  9.375614  79.742225  90.304812  -10.235691  -10.241471  -6.740489  -11.354451  19.753508  87.154661  30.659144  36.402767  -6.790767  -10.9163  -122.262935  63.773189  -7.612996  -21.725223  -18.917466  4.643144  9.06404  -14.252951  3.206262  6.946244  
0.0  93.25843  0.0  -4.316312  -21.929222  -88.079163  26.449794  -23.239664  -37.386917  1.552136  6.626694  34.174723  -0.115197  0.804523  2.640476  -10.240074  16.581423  7.636057  -3.427319  7.01575  11.851038  1.425198  0.162321  -1.652454  1.444174  0.091929  -0.217319  3.946663  0.264147  -0.588291  3.946663  0.264147  -0.588291  -15.754044  12.690536  0.635486  -157.844249  72.891303  -95.587733  -30.008696  9.465954  79.887034  90.251059  -10.174892  -10.275756  -6.892726  -11.539433  19.601458  87.025033  30.468192  36.407002  -6.822018  -11.038178  -121.926113  64.024645  -7.712734  -21.020456  -19.19228  4.387262  8.851862  -14.454338  3.016714  6.781643  
0.0  93.25843  0.0  -4.241118  -21.962488  -87.95599  26.632462  -23.136983  -37.604959  1.660634  6.655684  34.215793  -0.068386  0.811817  2.642077  -10.193055  16.569102  7.553192  -3.27119  6.960173  11.773685  1.561843  0.201444  -1.738986  1.468738  0.139936  -0.206709  4.013463  0.394886  -0.556289  4.013463  0.394886  -0.556289  -15.912277  12.332392  0.461733  -158.345246  73.315952  -96.123522  -29.988298  9.470847  79.984479  90.252084  -10.084179  -10.379246  -7.071937  -11.755348  19.4388  86.871273  30.288988  36.40468  -6.734236  -11.202342  -121.556137  64.367304  -7.814419  -20.114578  -19.321471  4.182843  8.651029  -14.547345  2.867664  6.625739  
0.0  93.25843  0.0  -4.103405  -22.108661  -87.860392  26.828668  -22.915735  -37.82868  1.748855  6.67004  34.265304  -0.086105  0.827931  2.637363  -9.852415  16.602859  7.504693  -3.006909  6.845355  11.750632  1.666161  0.196579  -1.808895  1.506758  0.19434  -0.192515  4.117082  0.542958  -0.513892  4.117081  0.542958  -0.513892  -15.908282  12.055944  0.285926  -159.007518  73.766698  -96.865974  -29.883069  9.404639  80.17349  90.214167  -9.988511  -10.486788  -7.283999  -11.944354  19.281381  86.822215  30.063615  36.383664  -6.916594  -11.327838  -121.076674  64.617776  -7.997338  -19.188228  -19.625701  3.920346  8.418689  -14.770859  2.673717  6.445555  
0.0  93.25843  0.0  -4.091759  -22.023038  -87.708115  26.991334  -22.808247  -38.147357  1.760316  6.698905  34.350774  -0.05695  0.819109  2.645709  -9.471017  16.489203  7.560942  -2.594381  6.661221  11.730261  1.618051  0.131617  -1.843996  1.497602  0.221415  -0.189981  4.091887  0.616706  -0.505373  4.091887  0.616706  -0.505373  -15.900355  11.834887  0.150482  -159.8284  74.195106  -97.687167  -29.748049  9.134097  80.251246  90.261248  -9.787857  -10.633407  -7.337814  -12.09172  19.212875  86.533627  29.936741  36.290526  -6.856687  -11.46657  -120.547943  65.016432  -8.018747  -18.080111  -19.671438  3.788518  8.256022  -14.802582  2.579301  6.319678  
0.0  93.25843  0.0  -4.150781  -21.901023  -87.590618  26.853346  -22.714528  -38.534505  1.967873  6.540896  34.655438  -0.082319  0.78035  2.636688  -8.823371  16.276455  7.760727  -2.393774  6.338125  11.721631  1.440137  0.105919  -1.849575  1.483333  0.234028  -0.176588  4.052929  0.650241  -0.468141  4.052929  0.650241  -0.468141  -15.799836  11.667784  0.06294  -160.618427  74.532509  -98.711938  -29.434531  8.881382  80.540018  90.345707  -9.550495  -10.755953  -7.530847  -12.218581  19.121705  86.241943  29.834738  36.138034  -6.910314  -11.450513  -119.918389  65.385936  -7.964348  -16.83117  -19.79284  3.620105  8.09441  -14.890727  2.456414  6.193926  
0.0  93.25843  0.0  -4.298013  -21.666402  -87.503002  26.841876  -22.751161  -38.837716  1.940209  6.502425  34.769865  0.003459  0.760855  2.66733  -8.100586  15.961081  8.117551  -2.213147  6.093832  11.64724  1.100859  0.07434  -1.834384  1.447398  0.173363  -0.184741  3.955031  0.484725  -0.494399  3.955031  0.484725  -0.494399  -15.616696  11.891529  0.160346  -161.616675  74.807994  -99.682923  -29.139584  8.33762  80.621037  90.469208  -9.218888  -10.820035  -7.519254  -11.89032  19.358696  85.694263  29.943249  35.826506  -7.071104  -10.973894  -119.3185  65.586942  -7.791694  -15.160447  -19.793208  3.755418  7.968498  -14.891551  2.56212  6.103661  
0.0  93.25843  0.0  -4.52698  -21.551722  -87.441805  26.758295  -22.856168  -39.181521  2.068557  6.332727  35.049098  0.155122  0.714039  2.671352  -7.170167  15.513509  8.578141  -1.820488  6.006843  11.567992  0.638154  -0.057134  -1.802725  1.387247  0.068907  -0.20846  3.791286  0.200232  -0.565639  3.791286  0.200232  -0.565639  -14.980495  12.316727  0.413515  -162.865032  74.981411  -100.954154  -28.739803  7.756239  80.813433  90.592087  -8.817939  -10.856044  -7.282611  -11.311365  19.66092  85.055481  30.044807  35.411808  -7.308098  -10.762084  -118.387204  66.421604  -7.344115  -13.541738  -19.727048  3.982758  7.874525  -14.843563  2.736754  6.039775  
0.0  93.25843  0.0  -4.747286  -21.227472  -87.284112  26.669892  -22.947646  -39.583666  2.120251  6.261759  35.266941  0.429738  0.643782  2.676333  -6.523304  15.057491  8.914185  -1.973803  5.913196  11.435894  0.383758  -0.067951  -1.791536  1.32245  -0.016871  -0.230656  3.614909  -0.033489  -0.63118  3.614909  -0.033489  -0.63118  -14.606816  12.608525  0.621745  -164.109432  75.072167  -102.185547  -28.313213  7.093564  80.90111  90.685469  -8.347076  -10.927762  -7.021477  -10.763142  19.859988  84.136952  30.243695  34.788458  -7.405847  -10.210094  -117.563969  67.410335  -6.872284  -11.205758  -19.635571  4.182423  7.769676  -14.776143  2.89124  5.966618  
0.0  93.25843  0.0  -4.894758  -21.339101  -87.211902  26.995099  -23.034143  -39.920223  2.389041  6.080585  35.582153  0.76683  0.634221  2.646838  -5.09103  14.68382  9.413461  -2.09082  5.86539  11.269112  -0.084518  -0.185201  -1.753465  1.35127  -0.130325  -0.318045  3.695232  -0.33833  -0.876319  3.695232  -0.33833  -0.876319  -14.308232  13.239955  1.287241  -165.301183  75.302834  -103.510155  -28.039577  6.673825  81.021016  90.761922  -7.872597  -11.150767  -6.944366  -9.906171  20.469141  83.083195  30.48029  34.055566  -7.761798  -9.290113  -116.756378  68.093278  -6.586796  -8.668062  -19.78817  4.545341  7.874212  -14.89485  3.15858  6.057598  
0.0  93.25843  0.0  -5.095888  -20.851596  -86.831617  26.922853  -23.061184  -40.551496  2.798808  5.841533  35.85744  1.304955  0.754589  2.530226  -4.749474  14.204828  9.521124  -2.203194  5.771592  11.031539  -0.35216  -0.195639  -1.703215  1.282465  -0.323998  -0.527633  3.512549  -0.857308  -1.459018  3.512549  -0.857308  -1.459018  -13.840162  14.486762  2.345353  -166.531352  75.480874  -104.799882  -27.667948  6.330017  80.990592  90.887962  -7.40998  -11.542096  -6.711169  -8.588931  21.524899  81.875573  30.825422  33.313036  -8.488089  -7.99153  -116.01326  68.098792  -6.616295  -6.215997  -19.741543  5.343302  8.161716  -14.86998  3.749312  6.297747  
